<mxfile host="Electron" agent="Mozilla/5.0 (Windows NT 10.0; Win64; x64) AppleWebKit/537.36 (KHTML, like Gecko) draw.io/26.2.2 Chrome/134.0.6998.178 Electron/35.1.2 Safari/537.36" version="26.2.2">
  <diagram name="Page-1" id="SvWZXMdqnCbOz-GO7u-F">
    <mxGraphModel dx="1871" dy="626" grid="1" gridSize="10" guides="1" tooltips="1" connect="1" arrows="1" fold="1" page="1" pageScale="1" pageWidth="827" pageHeight="1169" background="#ffffff" math="0" shadow="0">
      <root>
        <mxCell id="0" />
        <mxCell id="1" parent="0" />
        <mxCell id="-T-tow7LN_VVc8fzxaMG-10" style="edgeStyle=orthogonalEdgeStyle;rounded=0;orthogonalLoop=1;jettySize=auto;html=1;" edge="1" parent="1" source="-T-tow7LN_VVc8fzxaMG-1" target="-T-tow7LN_VVc8fzxaMG-2">
          <mxGeometry relative="1" as="geometry">
            <Array as="points">
              <mxPoint x="110" y="230" />
              <mxPoint x="110" y="230" />
            </Array>
          </mxGeometry>
        </mxCell>
        <mxCell id="-T-tow7LN_VVc8fzxaMG-12" style="edgeStyle=orthogonalEdgeStyle;rounded=0;orthogonalLoop=1;jettySize=auto;html=1;exitX=0.5;exitY=1;exitDx=0;exitDy=0;entryX=1;entryY=0;entryDx=0;entryDy=0;" edge="1" parent="1" source="-T-tow7LN_VVc8fzxaMG-1" target="-T-tow7LN_VVc8fzxaMG-5">
          <mxGeometry relative="1" as="geometry">
            <Array as="points">
              <mxPoint x="-10" y="390" />
              <mxPoint x="-10" y="446" />
            </Array>
          </mxGeometry>
        </mxCell>
        <mxCell id="-T-tow7LN_VVc8fzxaMG-14" style="edgeStyle=orthogonalEdgeStyle;rounded=0;orthogonalLoop=1;jettySize=auto;html=1;" edge="1" parent="1" source="-T-tow7LN_VVc8fzxaMG-1" target="-T-tow7LN_VVc8fzxaMG-8">
          <mxGeometry relative="1" as="geometry" />
        </mxCell>
        <mxCell id="-T-tow7LN_VVc8fzxaMG-38" style="edgeStyle=orthogonalEdgeStyle;rounded=0;orthogonalLoop=1;jettySize=auto;html=1;" edge="1" parent="1" source="-T-tow7LN_VVc8fzxaMG-1" target="-T-tow7LN_VVc8fzxaMG-16">
          <mxGeometry relative="1" as="geometry">
            <Array as="points">
              <mxPoint x="40" y="420" />
              <mxPoint x="40" y="420" />
            </Array>
          </mxGeometry>
        </mxCell>
        <mxCell id="-T-tow7LN_VVc8fzxaMG-1" value="AB_ARTICLE" style="whiteSpace=wrap;html=1;align=center;" vertex="1" parent="1">
          <mxGeometry x="30" y="350" width="90" height="40" as="geometry" />
        </mxCell>
        <mxCell id="-T-tow7LN_VVc8fzxaMG-2" value="ab_name" style="ellipse;whiteSpace=wrap;html=1;align=center;" vertex="1" parent="1">
          <mxGeometry x="60" y="180" width="100" height="40" as="geometry" />
        </mxCell>
        <mxCell id="-T-tow7LN_VVc8fzxaMG-3" style="edgeStyle=orthogonalEdgeStyle;rounded=0;orthogonalLoop=1;jettySize=auto;html=1;exitX=0.5;exitY=1;exitDx=0;exitDy=0;" edge="1" parent="1" source="-T-tow7LN_VVc8fzxaMG-2" target="-T-tow7LN_VVc8fzxaMG-2">
          <mxGeometry relative="1" as="geometry" />
        </mxCell>
        <mxCell id="-T-tow7LN_VVc8fzxaMG-5" value="ab_price" style="ellipse;whiteSpace=wrap;html=1;align=center;" vertex="1" parent="1">
          <mxGeometry x="-70" y="440" width="100" height="40" as="geometry" />
        </mxCell>
        <mxCell id="-T-tow7LN_VVc8fzxaMG-6" value="ab_description" style="ellipse;whiteSpace=wrap;html=1;align=center;" vertex="1" parent="1">
          <mxGeometry y="240" width="100" height="40" as="geometry" />
        </mxCell>
        <mxCell id="-T-tow7LN_VVc8fzxaMG-8" value="id" style="ellipse;whiteSpace=wrap;html=1;align=center;fontStyle=4;" vertex="1" parent="1">
          <mxGeometry x="-90" y="310" width="100" height="40" as="geometry" />
        </mxCell>
        <mxCell id="-T-tow7LN_VVc8fzxaMG-9" value="created_at" style="ellipse;whiteSpace=wrap;html=1;align=center;dashed=1;" vertex="1" parent="1">
          <mxGeometry x="50" y="440" width="100" height="40" as="geometry" />
        </mxCell>
        <mxCell id="-T-tow7LN_VVc8fzxaMG-11" style="edgeStyle=orthogonalEdgeStyle;rounded=0;orthogonalLoop=1;jettySize=auto;html=1;entryX=0.748;entryY=0.89;entryDx=0;entryDy=0;entryPerimeter=0;" edge="1" parent="1" source="-T-tow7LN_VVc8fzxaMG-1" target="-T-tow7LN_VVc8fzxaMG-6">
          <mxGeometry relative="1" as="geometry">
            <Array as="points">
              <mxPoint x="75" y="280" />
              <mxPoint x="75" y="280" />
            </Array>
          </mxGeometry>
        </mxCell>
        <mxCell id="-T-tow7LN_VVc8fzxaMG-16" value="&lt;span style=&quot;border-bottom: 1px dotted&quot;&gt;ab_creator_id&lt;/span&gt;" style="ellipse;whiteSpace=wrap;html=1;align=center;" vertex="1" parent="1">
          <mxGeometry x="-10" y="500" width="100" height="40" as="geometry" />
        </mxCell>
        <mxCell id="-T-tow7LN_VVc8fzxaMG-26" style="edgeStyle=orthogonalEdgeStyle;rounded=0;orthogonalLoop=1;jettySize=auto;html=1;" edge="1" parent="1" source="-T-tow7LN_VVc8fzxaMG-20" target="-T-tow7LN_VVc8fzxaMG-23">
          <mxGeometry relative="1" as="geometry" />
        </mxCell>
        <mxCell id="-T-tow7LN_VVc8fzxaMG-28" style="edgeStyle=orthogonalEdgeStyle;rounded=0;orthogonalLoop=1;jettySize=auto;html=1;entryX=1;entryY=1;entryDx=0;entryDy=0;" edge="1" parent="1" source="-T-tow7LN_VVc8fzxaMG-20" target="-T-tow7LN_VVc8fzxaMG-21">
          <mxGeometry relative="1" as="geometry">
            <Array as="points">
              <mxPoint x="265" y="80" />
            </Array>
          </mxGeometry>
        </mxCell>
        <mxCell id="-T-tow7LN_VVc8fzxaMG-20" value="AB_USER" style="whiteSpace=wrap;html=1;align=center;" vertex="1" parent="1">
          <mxGeometry x="320" y="70" width="100" height="40" as="geometry" />
        </mxCell>
        <mxCell id="-T-tow7LN_VVc8fzxaMG-21" value="ab_mail" style="ellipse;whiteSpace=wrap;html=1;align=center;" vertex="1" parent="1">
          <mxGeometry x="180" y="20" width="100" height="40" as="geometry" />
        </mxCell>
        <mxCell id="-T-tow7LN_VVc8fzxaMG-22" value="ab_name" style="ellipse;whiteSpace=wrap;html=1;align=center;" vertex="1" parent="1">
          <mxGeometry x="450" y="20" width="100" height="40" as="geometry" />
        </mxCell>
        <mxCell id="-T-tow7LN_VVc8fzxaMG-23" value="ab_password" style="ellipse;whiteSpace=wrap;html=1;align=center;" vertex="1" parent="1">
          <mxGeometry x="460" y="90" width="100" height="40" as="geometry" />
        </mxCell>
        <mxCell id="-T-tow7LN_VVc8fzxaMG-24" value="ID" style="ellipse;whiteSpace=wrap;html=1;align=center;fontStyle=4;" vertex="1" parent="1">
          <mxGeometry x="340" width="100" height="40" as="geometry" />
        </mxCell>
        <mxCell id="-T-tow7LN_VVc8fzxaMG-27" style="edgeStyle=orthogonalEdgeStyle;rounded=0;orthogonalLoop=1;jettySize=auto;html=1;entryX=0;entryY=0.75;entryDx=0;entryDy=0;entryPerimeter=0;" edge="1" parent="1" source="-T-tow7LN_VVc8fzxaMG-20" target="-T-tow7LN_VVc8fzxaMG-22">
          <mxGeometry relative="1" as="geometry" />
        </mxCell>
        <mxCell id="-T-tow7LN_VVc8fzxaMG-30" style="edgeStyle=orthogonalEdgeStyle;rounded=0;orthogonalLoop=1;jettySize=auto;html=1;entryX=0.294;entryY=0.88;entryDx=0;entryDy=0;entryPerimeter=0;" edge="1" parent="1" source="-T-tow7LN_VVc8fzxaMG-20" target="-T-tow7LN_VVc8fzxaMG-24">
          <mxGeometry relative="1" as="geometry" />
        </mxCell>
        <mxCell id="-T-tow7LN_VVc8fzxaMG-31" value="" style="endArrow=none;html=1;rounded=0;exitX=0;exitY=0.5;exitDx=0;exitDy=0;entryX=1;entryY=0.5;entryDx=0;entryDy=0;" edge="1" parent="1">
          <mxGeometry relative="1" as="geometry">
            <mxPoint x="320" y="110" as="sourcePoint" />
            <mxPoint x="120" y="350" as="targetPoint" />
          </mxGeometry>
        </mxCell>
        <mxCell id="-T-tow7LN_VVc8fzxaMG-32" value="N" style="resizable=0;html=1;whiteSpace=wrap;align=right;verticalAlign=bottom;" connectable="0" vertex="1" parent="-T-tow7LN_VVc8fzxaMG-31">
          <mxGeometry x="1" relative="1" as="geometry">
            <mxPoint x="20" y="-30" as="offset" />
          </mxGeometry>
        </mxCell>
        <mxCell id="-T-tow7LN_VVc8fzxaMG-50" value="" style="edgeStyle=orthogonalEdgeStyle;rounded=0;orthogonalLoop=1;jettySize=auto;html=1;" edge="1" parent="1" source="-T-tow7LN_VVc8fzxaMG-33" target="-T-tow7LN_VVc8fzxaMG-36">
          <mxGeometry relative="1" as="geometry">
            <Array as="points">
              <mxPoint x="350" y="540" />
              <mxPoint x="350" y="540" />
            </Array>
          </mxGeometry>
        </mxCell>
        <mxCell id="-T-tow7LN_VVc8fzxaMG-51" style="edgeStyle=orthogonalEdgeStyle;rounded=0;orthogonalLoop=1;jettySize=auto;html=1;entryX=0.5;entryY=0;entryDx=0;entryDy=0;" edge="1" parent="1" source="-T-tow7LN_VVc8fzxaMG-33" target="-T-tow7LN_VVc8fzxaMG-48">
          <mxGeometry relative="1" as="geometry" />
        </mxCell>
        <mxCell id="-T-tow7LN_VVc8fzxaMG-52" style="edgeStyle=orthogonalEdgeStyle;rounded=0;orthogonalLoop=1;jettySize=auto;html=1;" edge="1" parent="1" source="-T-tow7LN_VVc8fzxaMG-33" target="-T-tow7LN_VVc8fzxaMG-37">
          <mxGeometry relative="1" as="geometry" />
        </mxCell>
        <mxCell id="-T-tow7LN_VVc8fzxaMG-78" style="edgeStyle=orthogonalEdgeStyle;rounded=0;orthogonalLoop=1;jettySize=auto;html=1;entryX=0.5;entryY=0;entryDx=0;entryDy=0;" edge="1" parent="1" source="-T-tow7LN_VVc8fzxaMG-33" target="-T-tow7LN_VVc8fzxaMG-35">
          <mxGeometry relative="1" as="geometry" />
        </mxCell>
        <mxCell id="-T-tow7LN_VVc8fzxaMG-33" value="ab_articlecategory" style="whiteSpace=wrap;html=1;align=center;" vertex="1" parent="1">
          <mxGeometry x="314" y="470" width="100" height="40" as="geometry" />
        </mxCell>
        <mxCell id="-T-tow7LN_VVc8fzxaMG-35" value="ab_name" style="ellipse;whiteSpace=wrap;html=1;align=center;" vertex="1" parent="1">
          <mxGeometry x="200" y="530" width="100" height="40" as="geometry" />
        </mxCell>
        <mxCell id="-T-tow7LN_VVc8fzxaMG-36" value="ab_description" style="ellipse;whiteSpace=wrap;html=1;align=center;" vertex="1" parent="1">
          <mxGeometry x="300" y="585" width="100" height="40" as="geometry" />
        </mxCell>
        <mxCell id="-T-tow7LN_VVc8fzxaMG-37" value="ID" style="ellipse;whiteSpace=wrap;html=1;align=center;fontStyle=4;" vertex="1" parent="1">
          <mxGeometry x="314" y="400" width="100" height="35" as="geometry" />
        </mxCell>
        <mxCell id="-T-tow7LN_VVc8fzxaMG-40" style="edgeStyle=orthogonalEdgeStyle;rounded=0;orthogonalLoop=1;jettySize=auto;html=1;entryX=0.35;entryY=0.04;entryDx=0;entryDy=0;entryPerimeter=0;" edge="1" parent="1" source="-T-tow7LN_VVc8fzxaMG-1" target="-T-tow7LN_VVc8fzxaMG-9">
          <mxGeometry relative="1" as="geometry">
            <Array as="points">
              <mxPoint x="85" y="400" />
              <mxPoint x="85" y="400" />
            </Array>
          </mxGeometry>
        </mxCell>
        <mxCell id="-T-tow7LN_VVc8fzxaMG-42" value="" style="endArrow=none;html=1;rounded=0;entryX=1;entryY=1;entryDx=0;entryDy=0;" edge="1" parent="1" source="-T-tow7LN_VVc8fzxaMG-33" target="-T-tow7LN_VVc8fzxaMG-1">
          <mxGeometry relative="1" as="geometry">
            <mxPoint x="140" y="570" as="sourcePoint" />
            <mxPoint x="300" y="570" as="targetPoint" />
          </mxGeometry>
        </mxCell>
        <mxCell id="-T-tow7LN_VVc8fzxaMG-43" value="N" style="resizable=0;html=1;whiteSpace=wrap;align=right;verticalAlign=bottom;" connectable="0" vertex="1" parent="-T-tow7LN_VVc8fzxaMG-42">
          <mxGeometry x="1" relative="1" as="geometry">
            <mxPoint x="10" y="20" as="offset" />
          </mxGeometry>
        </mxCell>
        <mxCell id="-T-tow7LN_VVc8fzxaMG-44" value="1" style="text;html=1;align=center;verticalAlign=middle;whiteSpace=wrap;rounded=0;" vertex="1" parent="1">
          <mxGeometry x="288" y="100" width="26" height="10" as="geometry" />
        </mxCell>
        <mxCell id="-T-tow7LN_VVc8fzxaMG-47" value="1" style="text;html=1;align=center;verticalAlign=middle;whiteSpace=wrap;rounded=0;" vertex="1" parent="1">
          <mxGeometry x="300" y="455" width="20" height="10" as="geometry" />
        </mxCell>
        <mxCell id="-T-tow7LN_VVc8fzxaMG-48" value="ab_parent" style="ellipse;whiteSpace=wrap;html=1;align=center;" vertex="1" parent="1">
          <mxGeometry x="420" y="530" width="100" height="40" as="geometry" />
        </mxCell>
        <mxCell id="-T-tow7LN_VVc8fzxaMG-56" style="edgeStyle=orthogonalEdgeStyle;rounded=0;orthogonalLoop=1;jettySize=auto;html=1;entryX=1;entryY=0.5;entryDx=0;entryDy=0;" edge="1" parent="1" source="-T-tow7LN_VVc8fzxaMG-53" target="-T-tow7LN_VVc8fzxaMG-54">
          <mxGeometry relative="1" as="geometry">
            <Array as="points">
              <mxPoint x="645" y="240" />
            </Array>
          </mxGeometry>
        </mxCell>
        <mxCell id="-T-tow7LN_VVc8fzxaMG-67" style="edgeStyle=orthogonalEdgeStyle;rounded=0;orthogonalLoop=1;jettySize=auto;html=1;entryX=0.5;entryY=1;entryDx=0;entryDy=0;" edge="1" parent="1" source="-T-tow7LN_VVc8fzxaMG-53" target="-T-tow7LN_VVc8fzxaMG-66">
          <mxGeometry relative="1" as="geometry" />
        </mxCell>
        <mxCell id="-T-tow7LN_VVc8fzxaMG-53" value="AB_ARTICLE_HAS_CATEGORY" style="whiteSpace=wrap;html=1;align=center;" vertex="1" parent="1">
          <mxGeometry x="590" y="260" width="190" height="40" as="geometry" />
        </mxCell>
        <mxCell id="-T-tow7LN_VVc8fzxaMG-54" value="&lt;span style=&quot;border-bottom: 1px dotted&quot;&gt;id&lt;/span&gt;" style="ellipse;whiteSpace=wrap;html=1;align=center;" vertex="1" parent="1">
          <mxGeometry x="390" y="220" width="100" height="40" as="geometry" />
        </mxCell>
        <mxCell id="-T-tow7LN_VVc8fzxaMG-60" value="&lt;span style=&quot;border-bottom: 1px dotted&quot;&gt;ab_article_id&lt;/span&gt;" style="ellipse;whiteSpace=wrap;html=1;align=center;" vertex="1" parent="1">
          <mxGeometry x="700" y="340" width="100" height="40" as="geometry" />
        </mxCell>
        <mxCell id="-T-tow7LN_VVc8fzxaMG-63" style="edgeStyle=orthogonalEdgeStyle;rounded=0;orthogonalLoop=1;jettySize=auto;html=1;entryX=0.843;entryY=0.92;entryDx=0;entryDy=0;entryPerimeter=0;" edge="1" parent="1" source="-T-tow7LN_VVc8fzxaMG-60" target="-T-tow7LN_VVc8fzxaMG-53">
          <mxGeometry relative="1" as="geometry" />
        </mxCell>
        <mxCell id="-T-tow7LN_VVc8fzxaMG-66" value="&lt;span style=&quot;border-bottom: 1px dotted&quot;&gt;ab_articlecategory_id&lt;/span&gt;" style="ellipse;whiteSpace=wrap;html=1;align=center;" vertex="1" parent="1">
          <mxGeometry x="680" y="170" width="120" height="40" as="geometry" />
        </mxCell>
        <mxCell id="-T-tow7LN_VVc8fzxaMG-70" value="" style="endArrow=none;html=1;rounded=0;exitX=1;exitY=0.25;exitDx=0;exitDy=0;entryX=0;entryY=0.5;entryDx=0;entryDy=0;" edge="1" parent="1" source="-T-tow7LN_VVc8fzxaMG-1" target="-T-tow7LN_VVc8fzxaMG-53">
          <mxGeometry relative="1" as="geometry">
            <mxPoint x="330" y="340" as="sourcePoint" />
            <mxPoint x="490" y="340" as="targetPoint" />
          </mxGeometry>
        </mxCell>
        <mxCell id="-T-tow7LN_VVc8fzxaMG-71" value="1" style="resizable=0;html=1;whiteSpace=wrap;align=right;verticalAlign=bottom;" connectable="0" vertex="1" parent="-T-tow7LN_VVc8fzxaMG-70">
          <mxGeometry x="1" relative="1" as="geometry">
            <mxPoint x="-20" as="offset" />
          </mxGeometry>
        </mxCell>
        <mxCell id="-T-tow7LN_VVc8fzxaMG-72" value="" style="endArrow=none;html=1;rounded=0;entryX=0;entryY=1;entryDx=0;entryDy=0;exitX=1;exitY=0;exitDx=0;exitDy=0;" edge="1" parent="1" source="-T-tow7LN_VVc8fzxaMG-33" target="-T-tow7LN_VVc8fzxaMG-53">
          <mxGeometry relative="1" as="geometry">
            <mxPoint x="414" y="417" as="sourcePoint" />
            <mxPoint x="574" y="417" as="targetPoint" />
          </mxGeometry>
        </mxCell>
        <mxCell id="-T-tow7LN_VVc8fzxaMG-73" value="1" style="resizable=0;html=1;whiteSpace=wrap;align=right;verticalAlign=bottom;" connectable="0" vertex="1" parent="-T-tow7LN_VVc8fzxaMG-72">
          <mxGeometry x="1" relative="1" as="geometry">
            <mxPoint y="30" as="offset" />
          </mxGeometry>
        </mxCell>
        <mxCell id="-T-tow7LN_VVc8fzxaMG-75" value="1" style="text;html=1;align=center;verticalAlign=middle;whiteSpace=wrap;rounded=0;" vertex="1" parent="1">
          <mxGeometry x="120" y="350" width="60" height="30" as="geometry" />
        </mxCell>
        <mxCell id="-T-tow7LN_VVc8fzxaMG-76" value="1" style="text;html=1;align=center;verticalAlign=middle;whiteSpace=wrap;rounded=0;" vertex="1" parent="1">
          <mxGeometry x="400" y="450" width="60" height="30" as="geometry" />
        </mxCell>
      </root>
    </mxGraphModel>
  </diagram>
</mxfile>
